<svg width="254" height="47" viewBox="0 0 254 47" fill="none" xmlns="http://www.w3.org/2000/svg">
<path d="M135.609 47V15.7588H155.341V23.0225H143.828V47H135.609Z" fill="#E30613"/>
<path d="M180.15 47V34.785H167.934V47H159.715V15.7588H167.934V27.4209H180.15V15.7588H188.37V47H180.15Z" fill="#E30613"/>
<path d="M226.501 15.7588V23.0225H236.103V47H244.348V23.0225H254V15.7588H226.501Z" fill="#E30613"/>
<path d="M214.411 47V29.2054L201.315 47H194.428V15.784H202.647V33.4027L215.517 15.784H222.63V47H214.411Z" fill="#E30613"/>
<path d="M88.3282 47V28.4513L80.1338 38.2535L71.9143 28.4513V47H63.6948V15.7588H71.7886L80.1338 26.516L88.4539 15.7588H96.5477V47H88.3282Z" fill="#E30613"/>
<path d="M124.097 47L122.388 42.6267H109.594L107.884 47H99.5894L112.233 15.7588H119.849L132.518 47H124.097ZM112.183 36.0166H119.824L116.003 26.2144L112.183 36.0166Z" fill="#E30613"/>
<path d="M0 14.2257C0 10.4305 1.48303 6.8615 4.17259 4.17219C6.86215 1.48289 10.4315 0 14.227 0H47.105V7.2385H14.227C12.3669 7.2385 10.6074 7.96738 9.27521 9.29947C7.943 10.6316 7.21405 12.3909 7.21405 14.2508L7.18892 26.3904C6.86215 29.6075 4.42395 32.2214 1.28194 32.6989L0 32.8749V14.2257Z" fill="#E30613"/>
<path d="M0 47V39.7615H32.878C34.738 39.7615 36.4976 39.0326 37.8298 37.7005C39.162 36.3684 39.8909 34.6091 39.8909 32.7492V21.2128C39.8909 17.7695 42.4548 14.8037 45.8482 14.2759L47.1301 14.0749V32.7241C47.1301 36.5192 45.6471 40.0882 42.9575 42.7775C40.268 45.4668 36.6987 46.9497 32.9031 46.9497H0V47Z" fill="#E30613"/>
<path d="M27.8508 32.9V23.5503L23.5525 28.6775L19.2794 23.5503V32.9H13.5986V14.5021H18.9778L23.5525 20.4086L28.1273 14.5021H33.5064V32.9H27.8508Z" fill="#E30613"/>
<path d="M64.3481 7.43959C63.4683 6.63531 63.041 5.57969 63.041 4.29787C63.041 2.99092 63.4935 1.96044 64.3481 1.20643C65.2279 0.427286 66.2836 0.0251465 67.5152 0.0251465C68.4202 0.0251465 69.2245 0.201082 69.9535 0.578088V2.51338C69.2496 2.18664 68.5458 2.01071 67.8672 2.01071C67.1382 2.01071 66.5349 2.21178 66.0573 2.63905C65.5798 3.04119 65.3284 3.59413 65.3284 4.27274C65.3284 4.95135 65.5798 5.50429 66.0573 5.93156C66.5601 6.35884 67.1633 6.55991 67.8672 6.55991C68.6966 6.55991 69.4507 6.38397 70.0791 6.00696V7.96739C69.2999 8.36953 68.4453 8.5706 67.4901 8.5706C66.2584 8.62087 65.2027 8.21873 64.3481 7.43959Z" fill="#E30613"/>
<path d="M77.2178 3.46845C77.1675 2.56364 76.5391 1.83476 75.4834 1.83476C74.4277 1.83476 73.7239 2.51337 73.6233 3.46845H77.2178ZM72.643 7.43957C71.7633 6.66043 71.3359 5.60481 71.3359 4.29786C71.3359 3.09144 71.7381 2.06096 72.5173 1.25668C73.2966 0.427273 74.3271 0 75.6091 0C76.8156 0 77.7456 0.427273 78.4494 1.25668C79.1533 2.0861 79.5052 3.11658 79.5052 4.32299V4.9262H73.6233C73.8747 6.03209 74.9304 6.63529 76.3632 6.63529C77.2932 6.63529 78.1478 6.38396 78.9773 5.90642V7.76631C78.2484 8.31925 77.2178 8.59572 75.8604 8.59572C74.6036 8.62086 73.5228 8.21872 72.643 7.43957Z" fill="#E30613"/>
<path d="M81.29 8.39465V0.226196H83.5523L85.9402 3.26737L88.3281 0.226196H90.6155V8.39465H88.4287V3.34277L86.3927 5.88128H85.4878L83.4517 3.34277V8.39465H81.29Z" fill="#E30613"/>
<path d="M95.1905 6.61015H96.7992C97.7041 6.61015 98.2319 6.20801 98.2319 5.47914C98.2319 4.75026 97.7041 4.32299 96.7992 4.32299H95.1905V6.61015ZM92.8779 8.39464V0.226196H95.1905V2.6139H97.1511C99.2122 2.6139 100.519 3.74491 100.519 5.50427C100.519 6.33368 100.243 7.03743 99.6647 7.59037C99.0865 8.14331 98.2822 8.41978 97.2516 8.41978H92.8779V8.39464Z" fill="#E30613"/>
<path d="M107.381 4.0214V2.01071H105.672C104.893 2.01071 104.44 2.36258 104.44 3.01605C104.44 3.66953 104.893 4.0214 105.672 4.0214H107.381ZM101.524 8.39466L103.711 5.27809C102.63 4.87595 102.077 4.07167 102.077 2.86525C102.077 1.3321 103.133 0.20108 105.295 0.20108H109.694V8.39466H107.381V5.68022H105.999L104.113 8.39466H101.524Z" fill="#E30613"/>
<path d="M116.179 8.39465V0.226196H118.466L120.829 3.26737L123.217 0.226196H125.504V8.39465H123.317V3.34277L121.281 5.88128H120.376L118.366 3.34277V8.39465H116.179Z" fill="#E30613"/>
<path d="M132.693 5.17754C132.216 4.87594 131.663 4.7 130.984 4.7C130.004 4.7 129.375 5.10214 129.375 5.75561C129.375 6.48449 129.979 6.81123 130.833 6.81123C131.638 6.81123 132.266 6.53476 132.693 5.98182V5.17754ZM136.036 6.50963V8.19358C135.735 8.41979 135.333 8.54545 134.78 8.54545C133.85 8.54545 133.246 8.19358 132.919 7.48984C132.191 8.21872 131.26 8.59572 130.104 8.59572C128.345 8.59572 127.088 7.51497 127.088 5.85615C127.088 4.97647 127.39 4.32299 128.043 3.84545C128.671 3.39305 129.426 3.16685 130.33 3.16685C131.261 3.16685 132.04 3.31765 132.693 3.66952V3.41818C132.693 2.3877 131.964 1.88503 130.532 1.88503C129.652 1.88503 128.822 2.11123 128.043 2.56364V0.653476C128.873 0.20107 129.878 0 131.085 0C132.241 0 133.196 0.276471 133.9 0.854545C134.629 1.43262 134.981 2.21176 134.981 3.21711V5.98182C134.981 6.38396 135.182 6.61016 135.559 6.61016C135.76 6.61016 135.936 6.58503 136.036 6.50963Z" fill="#E30613"/>
<path d="M137.67 8.39465V0.226196H144.156V2.16149H139.983V8.39465H137.67Z" fill="#E30613"/>
<path d="M150.113 5.17754C149.635 4.87594 149.082 4.7 148.403 4.7C147.423 4.7 146.795 5.10214 146.795 5.75561C146.795 6.48449 147.398 6.81123 148.253 6.81123C149.057 6.81123 149.685 6.53476 150.113 5.98182V5.17754ZM153.456 6.50963V8.19358C153.154 8.41979 152.752 8.54545 152.199 8.54545C151.269 8.54545 150.666 8.19358 150.339 7.48984C149.61 8.21872 148.68 8.59572 147.524 8.59572C145.764 8.59572 144.507 7.51497 144.507 5.85615C144.507 4.97647 144.809 4.32299 145.462 3.84545C146.091 3.39305 146.845 3.16685 147.75 3.16685C148.68 3.16685 149.459 3.31765 150.113 3.66952V3.41818C150.113 2.3877 149.384 1.88503 147.951 1.88503C147.071 1.88503 146.242 2.11123 145.462 2.56364V0.653476C146.317 0.226203 147.297 0 148.504 0C149.66 0 150.615 0.276471 151.319 0.854545C152.048 1.43262 152.4 2.21176 152.4 3.21711V5.98182C152.4 6.38396 152.601 6.61016 152.978 6.61016C153.179 6.61016 153.355 6.58503 153.456 6.50963Z" fill="#E30613"/>
<path d="M154.763 7.99251V6.13262C155.617 6.58503 156.572 6.7861 157.628 6.7861C158.885 6.7861 159.589 6.43423 159.589 5.83102C159.589 5.27808 159.111 5.02674 158.156 5.02674H156.547V3.34278H158.156C158.935 3.34278 159.337 3.09144 159.337 2.6139C159.337 2.0861 158.784 1.83476 157.653 1.83476C156.648 1.83476 155.768 2.0107 154.989 2.3877V0.578075C155.818 0.175936 156.899 0 158.156 0C159.162 0 159.991 0.20107 160.67 0.628342C161.348 1.05561 161.675 1.60856 161.675 2.2369C161.675 3.14171 161.273 3.71979 160.494 3.99626C161.348 4.24759 162.002 4.9262 162.002 5.95668C162.002 6.73583 161.625 7.36417 160.871 7.86684C160.142 8.36952 159.136 8.59572 157.93 8.59572C156.648 8.62086 155.592 8.39465 154.763 7.99251Z" fill="#E30613"/>
<path d="M163.812 8.39465V0.226196H166.074V5.02673L169.794 0.226196H171.956V8.39465H169.669V3.56898L165.974 8.39465H163.812Z" fill="#E30613"/>
<path d="M174.218 8.39465V0.226196H176.53V3.24224H179.899V0.226196H182.211V8.39465H179.899V5.17753H176.53V8.39465H174.218Z" fill="#E30613"/>
<path d="M188.495 6.58503C189.149 6.58503 189.702 6.35882 190.129 5.93155C190.557 5.47914 190.758 4.95134 190.758 4.29786C190.758 3.64439 190.531 3.09144 190.129 2.66417C189.702 2.21176 189.174 2.0107 188.495 2.0107C187.842 2.0107 187.289 2.21176 186.862 2.66417C186.434 3.09144 186.233 3.61925 186.233 4.29786C186.233 4.95134 186.459 5.50428 186.862 5.93155C187.289 6.38396 187.842 6.58503 188.495 6.58503ZM185.228 1.25668C186.082 0.427273 187.163 0 188.495 0C189.828 0 190.909 0.402139 191.763 1.25668C192.618 2.0861 193.045 3.11658 193.045 4.29786C193.045 5.52941 192.618 6.53476 191.763 7.3893C190.909 8.21872 189.828 8.62086 188.495 8.62086C187.163 8.62086 186.082 8.21872 185.228 7.3893C184.373 6.55989 183.946 5.52941 183.946 4.29786C183.946 3.09144 184.373 2.06096 185.228 1.25668Z" fill="#E30613"/>
<path d="M197.017 6.78609H198.977C199.782 6.78609 200.184 6.48448 200.184 5.85614C200.184 5.25293 199.782 4.9262 198.977 4.9262H197.017V6.78609ZM197.017 3.46844H198.625C199.354 3.46844 199.731 3.19197 199.731 2.63903C199.731 2.08609 199.379 1.80962 198.625 1.80962H197.017V3.46844ZM194.754 8.39464V0.226196H199.379C201.089 0.226196 201.994 1.13101 201.994 2.33743C201.994 3.16684 201.667 3.71978 200.988 4.07165C202.019 4.42352 202.547 5.12727 202.547 6.18288C202.547 7.56523 201.466 8.41978 199.555 8.41978H194.754V8.39464Z" fill="#E30613"/>
</svg>
